# xmcd
#
# Track frame offsets: 
#        150
#        23655
#        51192
#        78410
#        110555
#        135235
#        160062
#        192682
#        219347
#        240967
#
# Disc length: 3538 seconds
#
# Revision: 0
# Processed by: cddbd v1.5.2PL0 Copyright (c) Steve Scherf et al.
# Submitted via: ExactAudioCopy v1.0b3
#
DISCID=7a0dd00a
DTITLE=Various Artist - Tinh ca Dai Phuong Trang 1
DYEAR=2007
DGENRE=
TTITLE0=Son Tuyen - Nguoi yeu co don
TTITLE1=Tuan Vu - Hoa muoi gio
TTITLE2=Ha Phuong - Quan nho doi cho
TTITLE3=Hoang Lan - Xa cuoc tinh xua
TTITLE4=Thien Trang, Hoang Dong - Hai hoa rung cho em
TTITLE5=Truong Vu - Nguoi yeu co don 2
TTITLE6=Quynh Dung - Tieng hat ben pha My Thuan
TTITLE7=Thai Chau - Chuyen xe mien Tay
TTITLE8=Giao Linh - Mau tim pensé
TTITLE9=Truong Vu - Nguoi yeu co don 3
EXTD=
EXTT0=
EXTT1=
EXTT2=
EXTT3=
EXTT4=
EXTT5=
EXTT6=
EXTT7=
EXTT8=
EXTT9=
PLAYORDER=
